<svg width="114" height="114" xmlns="http://www.w3.org/2000/svg">
 <defs>
  <style>.cls-1,.cls-2,.cls-3,.cls-4{fill:none;}.cls-5{clip-path:url(#clippath);}.cls-6{fill:#00b9e8;}.cls-7{fill:#0069e8;}.cls-8{fill:#e8aa00;}.cls-9{fill:#fff;}.cls-10{fill:#e84e00;}.cls-11{fill:#e29f75;}.cls-12{fill:#e28f5b;}.cls-13{fill:#e26d42;}.cls-14{fill:#e1814b;}.cls-15{fill:#1a1008;}.cls-16{fill:#2b1200;}.cls-17{fill:#3e00b9;}.cls-18{fill:#4a1f1f;}.cls-2{stroke:#814231;stroke-miterlimit:10;stroke-width:7px;}.cls-2,.cls-3,.cls-4{stroke-linecap:round;}.cls-3{stroke:#ff8700;}.cls-3,.cls-4{stroke-linejoin:round;stroke-width:6px;}.cls-4{stroke:#e8aa00;}</style>
  <clipPath id="clippath">
   <path id="svg_1" d="m104.68,205.02c-21.76,0 -37.77,-19.12 -37.77,-42.37l0,-49.19c0,-20.88 15.66,-38.99 34.18,-38.99l31.97,0c18.53,0 29.34,18.11 29.34,38.99l3.64,35.66l0,56.51l-61.36,-0.6l0,-0.01z" class="cls-1"/>
  </clipPath>
 </defs>
 <g>
  <title>background</title>
  <rect fill="none" id="canvas_background" height="116" width="116" y="-1" x="-1"/>
 </g>
 <g>
  <title>Layer 1</title>
  <g id="Birds">
   <g id="svg_28">
    <g id="svg_29">
     <line id="svg_30" y2="106.752102" x2="38.605931" y1="91.592102" x1="45.845931" class="cls-3"/>
     <line id="svg_31" y2="106.752102" x2="31.535931" y1="106.752102" x1="46.945931" class="cls-3"/>
     <circle id="svg_32" r="8.42" cy="89.882102" cx="45.165931" class="cls-17"/>
    </g>
    <g id="svg_33">
     <path id="svg_34" d="m44.969263,26.372103c-4.99,7.26 -12.85,11.18 -17.43,12.97c-1.85,0.72 -3.83,-0.64 -3.82,-2.62c0.03,-4.91 0.88,-13.65 5.87,-20.91s12.85,-11.18 17.43,-12.97c1.85,-0.72 3.83,0.64 3.82,2.62c-0.03,4.91 -0.88,13.65 -5.87,20.91z" class="cls-17"/>
     <path id="svg_35" d="m45.769263,40.732103c-7.16,2.9 -14.8,1.98 -19.01,1.08c-1.7,-0.36 -2.49,-2.32 -1.53,-3.76c2.39,-3.58 7.24,-9.57 14.39,-12.47c7.16,-2.9 14.8,-1.98 19.01,-1.08c1.7,0.36 2.49,2.32 1.53,3.76c-2.39,3.58 -7.24,9.57 -14.39,12.47z" class="cls-17"/>
    </g>
    <circle id="svg_36" r="23.82" cy="68.822102" cx="55.365931" class="cls-7"/>
    <path id="svg_37" d="m55.055931,57.252102c2.57,3.15 2.18,8.05 1.65,10.91c-0.21,1.15 -1.71,2.37 -2.88,2.35c-2.9,-0.06 -7.78,-0.65 -10.36,-3.8s-2.18,-8.05 -1.65,-10.91c0.21,-1.15 1.71,-2.37 2.88,-2.35c2.9,0.06 7.78,0.65 10.36,3.8z" class="cls-6"/>
    <g id="svg_38">
     <circle id="svg_39" r="16.960001" cy="48.857658" cx="36.190375" class="cls-6"/>
     <circle id="svg_40" r="6.38" cy="47.347658" cx="33.299264" class="cls-9"/>
     <path transform="rotate(36.363094329833984 81.4631576538086,60.16154861450196) " stroke="null" id="svg_41" d="m86.522245,65.559504c-4.7767,5.096652 -11.24774,7.08833 -14.952315,7.833932c-1.493317,0.306412 -2.795183,-1.092869 -2.508007,-2.675998c0.708368,-3.952714 2.565442,-10.857197 7.342142,-15.953849c4.7767,-5.096652 11.24774,-7.08833 14.952315,-7.833932c1.493317,-0.306412 2.795183,1.092869 2.508007,2.675998c-0.708368,3.952714 -2.565442,10.857197 -7.342142,15.953849z" class="cls-7"/>
     <path transform="rotate(25.464645385742188 78.11871337890622,51.81098937988282) " id="svg_42" d="m84.973707,54.79099c-2.81,6.47 -8.39,10.76 -11.72,12.87c-1.34,0.85 -3.11,0.08 -3.4,-1.48c-0.73,-3.87 -1.4,-10.87 1.41,-17.35c2.81,-6.47 8.39,-10.76 11.72,-12.87c1.34,-0.85 3.11,-0.08 3.4,1.48c0.73,3.87 1.4,10.87 -1.41,17.35z" class="cls-7"/>
     <path id="svg_43" d="m41.430375,70.447658c-1.4,3.82 -5.82,5.98 -8.54,6.98c-1.1,0.4 -2.91,-0.26 -3.48,-1.28c-1.43,-2.52 -3.41,-7.03 -2.01,-10.85c1.4,-3.82 5.82,-5.98 8.54,-6.98c1.1,-0.4 2.91,0.26 3.48,1.28c1.43,2.52 3.41,7.03 2.01,10.85z" class="cls-6"/>
     <path id="svg_44" d="m53.194819,40.586547c3.9,-1.17 8.27,1.07 10.71,2.65c0.98,0.64 1.54,2.48 1.07,3.55c-1.16,2.66 -3.58,6.94 -7.48,8.11c-3.9,1.17 -8.27,-1.07 -10.71,-2.65c-0.98,-0.64 -1.54,-2.48 -1.07,-3.55c1.16,-2.66 3.58,-6.94 7.48,-8.11z" class="cls-6"/>
    </g>
    <g id="svg_45">
     <path id="svg_46" transform="rotate(-17.559999465942383 -195.00407409667963,-101.37789916992192) " d="m-43.444069,108.352102l10.73,0l0,8.32c0,1.37 -1.11,2.47 -2.47,2.47l-1.64,0c-4.81,0 -8.71,-3.9 -8.71,-8.71l0,0c0,-1.15 0.94,-2.09 2.09,-2.09l0,0.01z" class="cls-10"/>
     <path id="svg_47" transform="rotate(-17.559999465942383 -193.7540740966796,-102.33789825439449) " d="m-37.684069,102.052103l2.54,0c1.22,0 2.2,0.99 2.2,2.2l0,10.25l-12.37,0c-1.33,0 -2.41,-1.08 -2.41,-2.41l0,0c0,-5.54 4.5,-10.04 10.04,-10.04z" class="cls-8"/>
    </g>
    <g id="svg_48">
     <line id="svg_49" y2="106.752102" x2="71.035931" y1="91.592102" x1="63.785931" class="cls-4"/>
     <circle id="svg_50" r="8.42" cy="89.882102" cx="63.785931" class="cls-7"/>
     <line id="svg_51" y2="106.752102" x2="78.095931" y1="106.752102" x1="62.685931" class="cls-4"/>
    </g>
   </g>
  </g>
 </g>
</svg>